<?xml version="1.0" encoding="UTF-8"?>
<svg id="Layer_1" data-name="Layer 1" xmlns="http://www.w3.org/2000/svg" version="1.1" viewBox="0 0 500 500">
  <defs>
    <style>
      .cls-1 {
        fill: #fff;
      }

      .cls-1, .cls-2 {
        stroke-width: 0px;
      }

      .cls-2, .cls-3 {
        fill: #2b2b2b;
      }

      .cls-3 {
        font-family: MyriadPro-Regular, 'Myriad Pro';
        font-size: 96.8px;
      }
    </style>
  </defs>
  <g>
    <path class="cls-2" d="M101.54,114.96c-.15,1.51-.23,3.03-.23,4.58s.08,3.07.23,4.58c2.69,26.52,28.58,47.32,60.11,47.32h83.73c2.53,0,4.15,2.71,2.94,4.93l-119.97,221.27c-.58,1.08-1.71,1.75-2.94,1.75h-43.61c-2.53,0-4.15-2.71-2.94-4.93l96.6-178.16c1.21-2.23-.4-4.93-2.94-4.93h-10.87c-22.29,0-42.99-5.88-60.11-15.93-10.96-6.43-20.46-14.58-27.97-23.99-10.5-13.15-17.11-28.77-18.43-45.64,0-.1-.01-.21-.01-.31v-11.88c0-.1,0-.21.01-.31,1.32-16.87,7.94-32.49,18.43-45.64,7.51-9.41,17.01-17.56,27.97-23.99,17.12-10.05,37.82-15.93,60.11-15.93h161.66c2.53,0,4.15,2.71,2.94,4.93l-18.02,33.24c-.58,1.08-1.71,1.75-2.94,1.75h-143.63c-31.53,0-57.42,20.8-60.11,47.32Z"/>
    <path class="cls-2" d="M421.17,399.39h-43.61c-1.23,0-2.35-.67-2.94-1.75l-101-186.28h0S372.25,29.47,372.25,29.47c.58-1.08,1.71-1.75,2.94-1.75h43.61c2.53,0,4.15,2.71,2.94,4.93l-96.89,178.7h0,0s99.27,183.09,99.27,183.09c1.21,2.23-.4,4.93-2.94,4.93Z"/>
  </g>
  <rect class="cls-1" x="24.33" y="18.11" width="19.22" height="19.22"/>
  <text class="cls-3" transform="translate(61.79 482.18)"><tspan x="0" y="0">Ceramics </tspan></text>
</svg>