<?xml version="1.0" encoding="UTF-8"?>
<svg id="Layer_1" data-name="Layer 1" xmlns="http://www.w3.org/2000/svg" version="1.1" viewBox="0 0 1200 400">
  <defs>
    <style>
      .cls-1 {
        font-family: CommercialScriptBT-Regular, 'CommercialScript BT';
        font-size: 238.88px;
      }

      .cls-1, .cls-2 {
        fill: #2a2b2a;
      }

      .cls-2 {
        stroke: #2a2b2a;
        stroke-miterlimit: 10;
        stroke-width: 20px;
      }
    </style>
  </defs>
  <g>
    <path class="cls-2" d="M68.54,111.75c-.13,1.32-.2,2.65-.2,4s.07,2.68.2,4c2.35,23.16,24.96,41.33,52.5,41.33h73.13c2.21,0,3.62,2.37,2.57,4.31l-104.78,193.25c-.51.94-1.5,1.53-2.57,1.53h-38.09c-2.21,0-3.62-2.37-2.57-4.31l84.37-155.6c1.05-1.94-.35-4.31-2.57-4.31h-9.5c-19.47,0-37.55-5.13-52.5-13.91-9.58-5.62-17.87-12.73-24.43-20.95-9.17-11.49-14.95-25.13-16.1-39.87,0-.09-.01-.18-.01-.27v-10.37c0-.09,0-.18.01-.27,1.15-14.73,6.93-28.38,16.1-39.87,6.56-8.22,14.85-15.34,24.43-20.95,14.95-8.78,33.03-13.91,52.5-13.91h141.19c2.21,0,3.62,2.37,2.57,4.31l-15.74,29.03c-.51.94-1.5,1.53-2.57,1.53h-125.45c-27.54,0-50.15,18.17-52.5,41.33Z"/>
    <path class="cls-2" d="M347.71,360.16h-38.09c-1.07,0-2.06-.59-2.57-1.53l-88.21-162.69h0s86.13-158.86,86.13-158.86c.51-.94,1.5-1.53,2.57-1.53h38.09c2.21,0,3.62,2.37,2.57,4.31l-84.62,156.08h0,0s86.7,159.91,86.7,159.91c1.05,1.94-.35,4.31-2.57,4.31Z"/>
  </g>
  <text class="cls-1" transform="translate(310 267.72)"><tspan x="0" y="0">Ceramics </tspan></text>
</svg>